<?xml version="1.0" encoding="UTF-8" standalone="no"?>
<svg
   enable-background="new 0 0 32 32"
   id="Editable-line"
   version="1.1"
   viewBox="0 0 32 32"
   xml:space="preserve"
   sodipodi:docname="gear.svg"
   inkscape:version="1.2 (dc2aedaf03, 2022-05-15)"
   xmlns:inkscape="http://www.inkscape.org/namespaces/inkscape"
   xmlns:sodipodi="http://sodipodi.sourceforge.net/DTD/sodipodi-0.dtd"
   xmlns="http://www.w3.org/2000/svg"
   xmlns:svg="http://www.w3.org/2000/svg"><defs
     id="defs7" /><sodipodi:namedview
     id="namedview5"
     pagecolor="#ffffff"
     bordercolor="#999999"
     borderopacity="1"
     inkscape:showpageshadow="0"
     inkscape:pageopacity="0"
     inkscape:pagecheckerboard="0"
     inkscape:deskcolor="#d1d1d1"
     showgrid="false"
     inkscape:zoom="25.4375"
     inkscape:cx="16.019656"
     inkscape:cy="12.874693"
     inkscape:window-width="1920"
     inkscape:window-height="1001"
     inkscape:window-x="-9"
     inkscape:window-y="-9"
     inkscape:window-maximized="1"
     inkscape:current-layer="Editable-line" /><circle
     cx="16"
     cy="16"
     fill="none"
     id="XMLID_224_"
     r="4.5714288"
     stroke="#000000"
     stroke-linecap="round"
     stroke-linejoin="round"
     stroke-miterlimit="10"
     stroke-width="2.28571" /><path
     d="M 29.437714,9.5611432 28.294857,7.5817145 C 27.664,6.4880002 26.266286,6.1142859 25.172571,6.7451431 L 24.571428,7.0925716 C 22.285714,8.4114292 19.428571,6.7622859 19.428571,4.1234288 V 3.4285716 c 0,-1.2628571 -1.022857,-2.2857143 -2.285714,-2.2857143 h -2.285714 c -1.262857,0 -2.285715,1.0228572 -2.285715,2.2857143 v 0.6948572 c 0,2.6388571 -2.8571418,4.2891424 -5.1428566,2.9691428 L 6.8274286,6.7451431 C 5.7337143,6.1142859 4.336,6.4880002 3.7051429,7.5817145 L 2.5622857,9.5611432 C 1.9314286,10.654857 2.3051429,12.052571 3.3988571,12.683429 L 4,13.030857 c 2.2857143,1.32 2.2857143,4.618286 0,5.938286 l -0.6011429,0.347428 c -1.0937142,0.630858 -1.4674285,2.028572 -0.8365714,3.122286 l 1.1428572,1.979429 C 4.336,25.512 5.7337143,25.885714 6.8274286,25.254857 l 0.6011428,-0.347428 c 2.2857148,-1.32 5.1428566,0.330285 5.1428566,2.969142 v 0.694858 c 0,1.262857 1.022858,2.285714 2.285715,2.285714 h 2.285714 c 1.262857,0 2.285714,-1.022857 2.285714,-2.285714 v -0.694858 c 0,-2.638857 2.857143,-4.289142 5.142857,-2.969142 l 0.601143,0.347428 C 26.266286,25.885714 27.664,25.512 28.294857,24.418286 l 1.142857,-1.979429 c 0.630857,-1.093714 0.257143,-2.491428 -0.836571,-3.122286 L 28,18.969143 c -2.285714,-1.32 -2.285714,-4.618286 0,-5.938286 l 0.601143,-0.347428 c 1.093714,-0.630858 1.468571,-2.028572 0.836571,-3.1222858 z"
     fill="none"
     id="XMLID_242_"
     stroke="#000000"
     stroke-linecap="round"
     stroke-linejoin="round"
     stroke-miterlimit="10"
     stroke-width="2.28571" /></svg>
