<?xml version="1.0" encoding="UTF-8" standalone="no"?>
<!-- Generator: Adobe Illustrator 16.0.0, SVG Export Plug-In . SVG Version: 6.00 Build 0)  -->

<svg
   version="1.1"
   id="Capa_1"
   x="0px"
   y="0px"
   width="32"
   height="32"
   viewBox="0 0 31.999999 31.999999"
   xml:space="preserve"
   sodipodi:docname="load.svg"
   inkscape:version="1.2 (dc2aedaf03, 2022-05-15)"
   xmlns:inkscape="http://www.inkscape.org/namespaces/inkscape"
   xmlns:sodipodi="http://sodipodi.sourceforge.net/DTD/sodipodi-0.dtd"
   xmlns="http://www.w3.org/2000/svg"
   xmlns:svg="http://www.w3.org/2000/svg"><defs
   id="defs55" /><sodipodi:namedview
   id="namedview53"
   pagecolor="#ffffff"
   bordercolor="#999999"
   borderopacity="1"
   inkscape:showpageshadow="0"
   inkscape:pageopacity="0"
   inkscape:pagecheckerboard="0"
   inkscape:deskcolor="#d1d1d1"
   showgrid="false"
   inkscape:zoom="15.006165"
   inkscape:cx="-1.0995481"
   inkscape:cy="19.42535"
   inkscape:window-width="1920"
   inkscape:window-height="1001"
   inkscape:window-x="-9"
   inkscape:window-y="-9"
   inkscape:window-maximized="1"
   inkscape:current-layer="Capa_1" />
<g
   id="g20"
   transform="matrix(0.05228758,0,0,0.05214232,-0.04460079,-1.2478e-6)"
   style="stroke-width:19.1516">
	<g
   id="g18"
   style="stroke-width:19.1516">
		<path
   d="m 594.389,274.302 c -12.418,-12.462 -27.193,-18.836 -44.311,-18.836 -17.118,0 -31.555,6.087 -43.981,18.478 -12.418,12.39 -18.463,27.215 -18.463,44.332 0,17.117 5.959,31.656 18.127,43.975 12.332,12.462 27.193,18.478 44.317,18.478 17.124,0 31.893,-6.088 44.311,-18.478 12.419,-12.462 18.464,-26.857 18.464,-43.975 0,-17.117 -6.045,-31.584 -18.464,-43.974 z"
   id="path2"
   style="stroke-width:19.1516" />
		<path
   d="m 474.542,438.453 c -16.114,0 -29.543,5.371 -40.623,16.472 -11.079,11.029 -16.45,24.136 -16.45,39.893 0,15.827 5.285,29.292 16.45,40.68 10.994,11.101 24.509,16.4 40.623,16.4 15.777,0 28.869,-5.371 39.949,-16.4 11.416,-11.459 17.124,-24.853 17.124,-40.68 0,-15.757 -5.787,-28.791 -17.124,-39.893 -11.166,-11.029 -24.172,-16.472 -39.949,-16.472 z"
   id="path4"
   style="stroke-width:19.1516" />
		<path
   d="m 482.936,213.855 c 18.463,0 34.577,-6.732 48.006,-20.125 13.429,-13.464 20.14,-29.579 20.14,-48.343 0,-19.123 -6.718,-35.237 -20.14,-48.701 C 517.85,83.58 501.736,76.919 482.936,76.919 c -19.137,0 -35.251,6.661 -48.343,19.767 -13.429,13.464 -20.14,29.579 -20.14,48.701 0,18.764 6.718,34.878 20.14,48.343 13.428,13.393 29.543,20.125 48.343,20.125 z"
   id="path6"
   style="stroke-width:19.1516" />
		<path
   d="m 297.284,511.289 c -14.102,0 -26.27,4.942 -36.253,15.112 -9.819,9.955 -14.768,22.13 -14.768,36.597 0,14.109 4.956,26.284 14.768,35.882 9.991,9.883 22.159,14.825 36.253,14.825 14.438,0 26.435,-5.157 36.254,-14.825 9.99,-9.812 15.104,-21.772 15.104,-35.882 0,-14.467 -5.035,-26.856 -15.104,-36.955 -9.733,-9.74 -21.815,-14.754 -36.254,-14.754 z"
   id="path8"
   style="stroke-width:19.1516" />
		<path
   d="M 297.284,0 C 276.808,0 259.347,7.09 244.916,21.486 230.478,35.953 223.43,53.07 223.43,73.553 c 0,20.483 7.047,38.245 21.486,52.711 14.438,14.396 31.892,21.486 52.368,21.486 20.476,0 37.937,-7.09 52.368,-21.486 14.438,-14.467 21.822,-32.229 21.822,-52.711 0,-20.482 -7.384,-37.6 -21.822,-52.067 C 335.221,7.09 317.76,0 297.284,0 Z"
   id="path10"
   style="stroke-width:19.1516" />
		<path
   d="m 120.363,179.263 c 9.067,0 17.447,-3.008 24.171,-9.74 13.436,-13.393 13.436,-35.237 0,-48.629 -6.725,-6.732 -15.104,-9.74 -24.171,-9.74 -8.73,0 -17.002,3.08 -23.835,9.74 -13.987,13.536 -13.987,35.093 0,48.629 6.833,6.661 15.112,9.74 23.835,9.74 z"
   id="path12"
   style="stroke-width:19.1516" />
		<path
   d="m 120.363,445.472 c -12.418,0 -22.997,4.87 -32.229,13.822 -8.895,8.522 -13.429,19.122 -13.429,31.513 0,12.461 4.362,23.204 13.429,32.229 9.067,9.096 19.81,13.751 32.229,13.751 12.419,0 23.162,-4.655 32.229,-13.751 9.067,-9.024 13.429,-19.768 13.429,-32.229 0,-12.391 -4.533,-22.99 -13.429,-31.513 -9.232,-8.952 -19.802,-13.822 -32.229,-13.822 z"
   id="path14"
   style="stroke-width:19.1516" />
		<path
   d="m 68.669,290.058 c -7.721,-7.735 -16.788,-11.745 -27.867,-11.745 -11.079,0 -20.812,4.01 -28.533,11.745 -7.721,7.735 -11.416,17.117 -11.416,28.217 0,11.029 3.695,20.77 11.416,28.505 7.721,7.734 17.454,11.459 28.533,11.459 11.079,0 20.139,-3.725 27.867,-11.459 7.72,-7.735 11.752,-17.476 11.752,-28.505 -0.007,-11.1 -4.032,-20.483 -11.752,-28.217 z"
   id="path16"
   style="stroke-width:19.1516" />
	</g>
</g>
<g
   id="g22">
</g>
<g
   id="g24">
</g>
<g
   id="g26">
</g>
<g
   id="g28">
</g>
<g
   id="g30">
</g>
<g
   id="g32">
</g>
<g
   id="g34">
</g>
<g
   id="g36">
</g>
<g
   id="g38">
</g>
<g
   id="g40">
</g>
<g
   id="g42">
</g>
<g
   id="g44">
</g>
<g
   id="g46">
</g>
<g
   id="g48">
</g>
<g
   id="g50">
</g>
</svg>
